<?xml version="1.0" encoding="UTF-8"?>
<svg id="White" xmlns="http://www.w3.org/2000/svg" viewBox="0 0 1200 335.79">
  <defs>
    <style>
      .cls-1 {
        fill: #fff;
        stroke-width: 0px;
      }
    </style>
  </defs>
  <g id="Claw">
    <path class="cls-1" d="M239.53,30.79c.38.04.74-.22.83-.59,4.27-16.34,9.75-22.48,11.01-24.27.44-.63,1.35-.68,1.87-.12,3.3,3.58,13.61,16.64,15.95,42.15.16,1.72.73,3.38,1.59,4.88,3.1,5.38,15.15,29.67,12.86,42.41-2.51,13.93-10.56,29.01-32.85,65.45-4.83,7.89-15.38,10.38-22.22,6.06-17.11-10.8-25.68-17.04-31.43-23.32-7.29-7.96-8.09-44.53-6.84-55.43.42-3.65,1.43-8.46,2.65-10.53,20.7-35.1,14.84-26.71,26.69-43.21,3.07-4.28,10.14-3.75,12.45-3.86l7.44.37Z"/>
    <path class="cls-1" d="M323.55,98.41c1.33-1.45,1.88-.8,2.4.09,9.9,16.93,11.29,35.61,11.34,40.62,0,.91.27,1.79.72,2.57,4.75,8.19,16.59,33.05,15.26,44.97-1.55,13.99-36.74,61.14-50.71,68.2,0,0-6.15,3.28-11.13-6.51-18.71-36.86-21.54-35.33-31.48-52.31-6.11-10.45,15.76-27.67,34.98-67.61,1.66-3.46,5.18-5.63,9.02-5.62l6.64.03c6.3-17.88,12.94-24.43,12.94-24.43"/>
    <path class="cls-1" d="M121.16,27.94c-.38.02-.73-.25-.8-.63-3.48-16.53-8.66-22.92-9.83-24.77-.41-.65-1.32-.75-1.86-.21-3.47,3.42-14.39,15.96-17.97,41.33-.24,1.72-.89,3.35-1.82,4.8-3.36,5.22-16.57,28.9-14.89,41.74,1.83,14.04,9.15,29.48,29.66,66.96,4.44,8.12,14.86,11.1,21.9,7.12,17.61-9.96,26.47-15.78,32.52-21.77,7.67-7.6,10.22-44.09,9.51-55.04-.24-3.66-1.02-8.52-2.14-10.64-18.98-36.06-13.54-27.39-24.57-44.45-2.86-4.42-9.95-4.23-12.25-4.45h-7.45Z"/>
    <path class="cls-1" d="M33.98,91.43c-1.25-1.51-1.84-.89-2.41-.03-10.7,16.44-12.99,35.03-13.29,40.03-.05.91-.36,1.77-.85,2.54C12.3,141.91-.72,166.17.03,178.14c.88,14.05,33.75,62.84,47.36,70.57,0,0,5.99,3.58,11.43-5.97,20.47-35.91,23.22-34.25,33.96-50.73,6.61-10.14-14.41-28.4-31.68-69.22-1.5-3.53-4.91-5.88-8.74-6.05l-6.63-.29c-5.43-18.16-11.75-25.03-11.75-25.03"/>
    <path class="cls-1" d="M280.34,292.17c-12.83-64.09-80.51-115.63-98-124.5-1.91-.97-3.61-1.4-5.19-1.51-1.58.03-3.31.39-5.26,1.26-17.89,8.01-87.98,56.23-103.88,119.63-1.4,5.56-.68,15.98,6.7,20.92,18.16,12.15,21.38,13.77,42.47,23.24,6.06,2.72,15.14,4.86,24.22-4.18,6.98-6.95,18.31-16.61,24-22.09,2.25-2.17,5.32-3.25,8.47-2.99,3.16-.11,6.18,1.12,8.32,3.39,5.41,5.75,16.27,15.94,22.91,23.22,8.64,9.47,17.81,7.77,23.99,5.35,21.53-8.44,24.82-9.9,43.54-21.16,7.61-4.58,8.83-14.95,7.7-20.57Z"/>
  </g>
  <g id="Karakedi">
    <path class="cls-1" d="M480.92,260.91l52.12,69.77h-30.81l-48.44-63.56v63.56h-26.74v-135.66h26.74v59.88l46.51-59.88h30.81l-50.19,65.89Z"/>
    <path class="cls-1" d="M609.97,245.21v-11.43h25v96.9h-25v-11.43c-7.49,9.43-18.02,14.15-31.58,14.15s-24.03-4.91-33.33-14.73c-9.17-9.95-13.76-22.09-13.76-36.43s4.58-26.29,13.76-36.24c9.3-9.95,20.41-14.92,33.33-14.92,13.56,0,24.09,4.72,31.58,14.15ZM563.85,301.99c5.04,5.04,11.43,7.56,19.18,7.56s14.15-2.52,19.18-7.56c5.17-5.17,7.75-11.75,7.75-19.77s-2.58-14.53-7.75-19.57c-5.04-5.17-11.43-7.75-19.18-7.75s-14.15,2.58-19.18,7.75c-5.04,5.04-7.56,11.56-7.56,19.57s2.52,14.6,7.56,19.77Z"/>
    <path class="cls-1" d="M682.63,233.77v16.67c2.2-6.07,5.94-10.69,11.24-13.86,5.29-3.16,11.37-4.75,18.21-4.75v27.91c-7.62-1.03-14.47.52-20.54,4.65-5.94,4.01-8.91,10.66-8.91,19.96v46.32h-25v-96.9h25Z"/>
    <path class="cls-1" d="M796.57,245.21v-11.43h25v96.9h-25v-11.43c-7.49,9.43-18.02,14.15-31.58,14.15s-24.03-4.91-33.33-14.73c-9.17-9.95-13.76-22.09-13.76-36.43s4.58-26.29,13.76-36.24c9.3-9.95,20.41-14.92,33.33-14.92,13.56,0,24.09,4.72,31.58,14.15ZM750.45,301.99c5.04,5.04,11.43,7.56,19.18,7.56s14.15-2.52,19.18-7.56c5.17-5.17,7.75-11.75,7.75-19.77s-2.58-14.53-7.75-19.57c-5.04-5.17-11.43-7.75-19.18-7.75s-14.15,2.58-19.18,7.75c-5.04,5.04-7.56,11.56-7.56,19.57s2.52,14.6,7.56,19.77Z"/>
    <path class="cls-1" d="M893.45,281.64l40.11,49.03h-29.07l-35.27-43.99v43.99h-25v-135.66h25v81.4l33.33-42.64h29.84l-38.95,47.87Z"/>
    <path class="cls-1" d="M1033.16,292.49h-73.05c3.23,12.15,12.34,18.22,27.32,18.22,9.56,0,16.79-3.23,21.7-9.69l20.15,11.63c-9.56,13.83-23.64,20.74-42.24,20.74-16.02,0-28.87-4.85-38.56-14.54-9.69-9.69-14.53-21.9-14.53-36.63s4.78-26.61,14.34-36.43c9.43-9.82,21.7-14.73,36.82-14.73s26.03,4.91,35.07,14.73c9.3,9.82,13.95,21.97,13.95,36.43,0,2.71-.33,6.14-.97,10.27ZM959.72,273.11h49.41c-1.42-6.33-4.3-11.17-8.62-14.53-4.33-3.36-9.46-5.04-15.4-5.04-6.72,0-12.27,1.71-16.66,5.13-4.39,3.43-7.3,8.24-8.72,14.44Z"/>
    <path class="cls-1" d="M1124.24,245.21v-50.19h25v135.66h-25v-11.43c-7.36,9.43-17.83,14.15-31.39,14.15s-24.22-4.91-33.52-14.73c-9.17-9.95-13.76-22.09-13.76-36.43s4.58-26.29,13.76-36.24c9.3-9.95,20.47-14.92,33.52-14.92s24.03,4.72,31.39,14.15ZM1078.12,301.99c5.3,5.04,11.75,7.56,19.38,7.56s14.15-2.52,19.18-7.56c5.04-5.17,7.56-11.75,7.56-19.77s-2.52-14.53-7.56-19.57c-5.04-5.17-11.43-7.75-19.18-7.75s-14.21,2.58-19.38,7.75c-5.04,5.04-7.56,11.56-7.56,19.57s2.52,14.6,7.56,19.77Z"/>
    <path class="cls-1" d="M1184.5,222.15c-4.14,0-7.72-1.52-10.75-4.55-3.04-3.04-4.55-6.62-4.55-10.76s1.52-7.75,4.55-10.85c3.03-3.1,6.62-4.65,10.75-4.65s7.91,1.55,10.95,4.65c3.03,3.1,4.55,6.72,4.55,10.85s-1.52,7.72-4.55,10.76c-3.04,3.04-6.68,4.55-10.95,4.55ZM1197.09,330.67h-25v-96.9h25v96.9Z"/>
  </g>
  <g id="Mucize">
    <path class="cls-1" d="M532.26,3.68h27.52v135.66h-26.55V51.36l-38.17,62.98h-3.1l-38.17-62.79v87.79h-26.74V3.68h27.51l38.95,64.15L532.26,3.68Z"/>
    <path class="cls-1" d="M647.75,94.77v-52.32h25v96.9h-25v-10.85c-5.94,9.04-15.57,13.57-28.87,13.57-10.59,0-19.38-3.55-26.35-10.66-6.85-7.24-10.27-17.06-10.27-29.46v-59.49h25v56.4c0,6.33,1.71,11.24,5.13,14.73,3.42,3.49,8.11,5.23,14.05,5.23,6.59,0,11.79-2.03,15.6-6.1,3.81-4.07,5.72-10.04,5.72-17.93Z"/>
    <path class="cls-1" d="M741.73,142.05c-14.6,0-26.81-4.91-36.62-14.73-9.69-9.82-14.53-21.96-14.53-36.43s4.84-26.61,14.53-36.43c9.82-9.82,22.02-14.73,36.62-14.73,9.43,0,18.02,2.26,25.77,6.78,7.75,4.52,13.63,10.6,17.63,18.22l-21.51,12.6c-1.94-4-4.88-7.17-8.82-9.49-3.94-2.33-8.37-3.49-13.27-3.49-7.49,0-13.69,2.49-18.6,7.46-4.91,4.98-7.36,11.34-7.36,19.09s2.45,13.83,7.36,18.99c4.91,4.91,11.11,7.36,18.6,7.36,5.04,0,9.53-1.13,13.47-3.39,3.94-2.26,6.88-5.39,8.82-9.4l21.7,12.4c-4.26,7.75-10.3,13.89-18.12,18.41-7.82,4.52-16.37,6.78-25.67,6.78Z"/>
    <path class="cls-1" d="M811.1,30.82c-4.14,0-7.72-1.52-10.75-4.55-3.04-3.04-4.55-6.62-4.55-10.76s1.52-7.75,4.55-10.85c3.03-3.1,6.62-4.65,10.75-4.65s7.91,1.55,10.95,4.65c3.03,3.1,4.55,6.72,4.55,10.85s-1.52,7.72-4.55,10.76c-3.04,3.04-6.68,4.55-10.95,4.55ZM823.7,139.34h-25V42.44h25v96.9Z"/>
    <path class="cls-1" d="M918.06,59.11l-41.08,56.78h43.02v23.45h-76.54v-16.67l40.88-56.78h-38.95v-23.45h72.67v16.67Z"/>
    <path class="cls-1" d="M1026.58,101.16h-73.05c3.23,12.15,12.34,18.22,27.32,18.22,9.56,0,16.79-3.23,21.7-9.69l20.15,11.63c-9.56,13.83-23.64,20.74-42.24,20.74-16.02,0-28.87-4.85-38.56-14.54-9.69-9.69-14.53-21.9-14.53-36.63s4.78-26.61,14.34-36.43c9.43-9.82,21.7-14.73,36.82-14.73s26.03,4.91,35.07,14.73c9.3,9.82,13.95,21.97,13.95,36.43,0,2.71-.33,6.14-.97,10.27ZM953.14,81.78h49.41c-1.42-6.33-4.3-11.17-8.62-14.53-4.33-3.36-9.46-5.04-15.4-5.04-6.72,0-12.27,1.71-16.66,5.13-4.39,3.43-7.3,8.24-8.72,14.44Z"/>
  </g>
</svg>