<?xml version="1.0" encoding="UTF-8"?>
<svg id="White_Icon" data-name="White Icon" xmlns="http://www.w3.org/2000/svg" viewBox="0 0 1200 1133.55">
  <defs>
    <style>
      .cls-1 {
        fill: #fff;
        stroke-width: 0px;
      }
    </style>
  </defs>
  <g id="Claw-2" data-name="Claw">
    <path class="cls-1" d="M813.38,97.83c1.3.13,2.5-.74,2.83-2,14.5-55.49,33.12-76.33,37.39-82.4,1.5-2.13,4.59-2.32,6.35-.4,11.2,12.15,46.21,56.49,54.18,143.12.54,5.86,2.47,11.49,5.4,16.58,10.53,18.25,51.46,100.74,43.67,144.01-8.51,47.32-35.87,98.5-111.56,222.26-16.39,26.81-52.21,35.23-75.44,20.57-58.09-36.67-87.21-57.87-106.73-79.18-24.76-27.03-27.46-151.22-23.24-188.23,1.41-12.38,4.84-28.72,8.99-35.75,70.28-119.2,50.4-90.69,90.62-146.73,10.42-14.52,34.44-12.73,42.27-13.1l25.27,1.24Z"/>
    <path class="cls-1" d="M1098.69,327.45c4.5-4.92,6.39-2.73,8.17.3,33.6,57.5,38.34,120.94,38.52,137.94.03,3.08.92,6.07,2.46,8.74,16.13,27.82,56.32,112.23,51.82,152.7-5.28,47.49-124.76,207.6-172.19,231.61,0,0-20.89,11.15-37.78-22.12-63.54-125.16-73.15-119.98-106.88-177.62-20.76-35.48,53.51-93.98,118.78-229.58,5.65-11.74,17.6-19.13,30.63-19.08l22.54.09c21.4-60.7,43.94-82.97,43.94-82.97"/>
    <path class="cls-1" d="M411.44,88.13c-1.3.06-2.46-.86-2.73-2.14-11.81-56.13-29.4-77.84-33.37-84.11-1.39-2.2-4.47-2.53-6.32-.71-11.77,11.6-48.88,54.2-61.01,140.34-.82,5.82-3.02,11.36-6.19,16.3-11.39,17.72-56.25,98.15-50.56,141.74,6.22,47.67,31.08,100.12,100.72,227.38,15.08,27.56,50.45,37.71,74.36,24.18,59.79-33.83,89.89-53.59,110.43-73.94,26.03-25.8,34.72-149.73,32.28-186.89-.82-12.44-3.45-28.92-7.26-36.14-64.45-122.44-45.97-93.01-83.45-150.93-9.71-15.01-33.79-14.37-41.59-15.12l-25.3.02Z"/>
    <path class="cls-1" d="M115.4,303.74c-4.26-5.13-6.26-3.03-8.17-.1-36.34,55.81-44.13,118.95-45.12,135.92-.18,3.08-1.21,6.02-2.88,8.61C41.77,475.18-2.44,557.55.11,598.2c2.98,47.69,114.61,213.37,160.82,239.64,0,0,20.33,12.15,38.81-20.28,69.5-121.95,78.85-116.31,115.32-172.26,22.45-34.43-48.92-96.45-107.58-235.04-5.08-11.99-16.66-19.96-29.67-20.53l-22.52-1c-18.45-61.67-39.89-84.99-39.89-84.99"/>
    <path class="cls-1" d="M951.95,985.39c-43.58-217.62-273.4-392.65-332.78-422.76-6.47-3.28-12.25-4.77-17.62-5.14-5.38.11-11.23,1.32-17.85,4.28-60.76,27.21-298.75,190.95-352.77,406.22-4.74,18.89-2.32,54.26,22.75,71.04,61.68,41.27,72.6,46.75,144.23,78.9,20.57,9.24,51.4,16.49,82.24-14.21,23.7-23.6,62.19-56.39,81.5-75,7.64-7.37,18.07-11.03,28.77-10.15,10.74-.37,20.98,3.79,28.25,11.52,18.39,19.52,55.25,54.13,77.79,78.85,29.32,32.15,60.47,26.39,81.46,18.16,73.1-28.66,84.27-33.6,147.87-71.86,25.85-15.55,29.97-50.76,26.15-69.86Z"/>
  </g>
</svg>